<svg width="25" height="24" viewBox="0 0 25 24" fill="none" xmlns="http://www.w3.org/2000/svg">
<path d="M12.5 9.7998V19.9998M12.5 9.7998C12.5 8.11965 12.5 7.27992 12.827 6.63818C13.1146 6.0737 13.5732 5.6146 14.1377 5.32698C14.7794 5 15.6196 5 17.2998 5H19.8998C20.4599 5 20.7401 5 20.954 5.10899C21.1422 5.20487 21.2948 5.35774 21.3906 5.5459C21.4996 5.75981 21.5 6.04004 21.5 6.6001V15.4001C21.5 15.9601 21.4996 16.2398 21.3906 16.4537C21.2948 16.6419 21.1425 16.7952 20.9543 16.8911C20.7406 17 20.461 17 19.902 17H17.0693C16.1301 17 15.6597 17 15.2334 17.1295C14.856 17.2441 14.5057 17.4317 14.201 17.6821C13.8568 17.965 13.596 18.3557 13.075 19.1372L12.5 19.9998M12.5 9.7998C12.5 8.11965 12.4998 7.27992 12.1729 6.63818C11.8852 6.0737 11.4263 5.6146 10.8618 5.32698C10.22 5 9.37977 5 7.69961 5H5.09961C4.53956 5 4.25981 5 4.0459 5.10899C3.85774 5.20487 3.70487 5.35774 3.60899 5.5459C3.5 5.75981 3.5 6.04004 3.5 6.6001V15.4001C3.5 15.9601 3.5 16.2398 3.60899 16.4537C3.70487 16.6419 3.85774 16.7952 4.0459 16.8911C4.2596 17 4.53901 17 5.09797 17H7.93073C8.86994 17 9.33942 17 9.76569 17.1295C10.1431 17.2441 10.4951 17.4317 10.7998 17.6821C11.1426 17.9638 11.4017 18.3526 11.9185 19.1277L12.5 19.9998" stroke="#6B7280" stroke-width="2" stroke-linecap="round" stroke-linejoin="round"/>
</svg>
